<svg xmlns="http://www.w3.org/2000/svg" viewBox="0 0 18 18.3"><defs><style>.cls-1{opacity:0.54;}</style></defs><title>cart_grey</title><g id="Слой_2" data-name="Слой 2"><g id="Layer_1" data-name="Layer 1"><g class="cls-1"><path d="M7.28,13.73A2.29,2.29,0,1,0,9.58,16h0A2.29,2.29,0,0,0,7.28,13.73Zm0,3.22A.93.93,0,0,1,6.36,16h0a.93.93,0,1,1,.93.94Z"/><path d="M14.13,13.73a2.29,2.29,0,0,0,0,4.57h0a2.29,2.29,0,0,0,0-4.57Zm0,3.22a.93.93,0,0,1-.94-.92v0a.93.93,0,1,1,.94.94Z"/><path d="M17.42,3.79H4.81L4.2.58A.7.7,0,0,0,3.52,0H.7A.7.7,0,0,0,0,.7.67.67,0,0,0,0,.82.65.65,0,0,0,0,.95a.68.68,0,0,0,.68.68H2.86L3.44,4.7l0,.08,1.44,7.6a.67.67,0,0,0,.36.47.69.69,0,0,0,.47.19H16.09l.08,0,0,0,.07,0,0,0,.06,0,0,0,0-.06,0,0,0-.07s0,0,0,0l0-.08a.07.07,0,0,1,0-.05L18,4.6A.7.7,0,0,0,17.42,3.79ZM6.29,11.58,5.1,5.29H16l-1.11,6.29Z"/></g></g></g></svg>