<svg xmlns="http://www.w3.org/2000/svg" viewBox="0 0 20.97 20.97"><defs><style>.cls-1{fill:none;stroke:#757575;stroke-miterlimit:10;}.cls-2{fill:#757575;}</style></defs><title>fb_social</title><g id="Слой_2" data-name="Слой 2"><g id="Layer_1" data-name="Layer 1"><path class="cls-1" d="M20.47,10.49a10,10,0,1,1-10-10A10,10,0,0,1,20.47,10.49Z"/><path class="cls-2" d="M13.13,9.52,13,10.94a.27.27,0,0,1-.26.24H11.17v4.39H9.25V11.18H8.12a.27.27,0,0,1-.27-.27V9.49a.27.27,0,0,1,.27-.27H9.25V7.86a2.23,2.23,0,0,1,2.38-2.45H12.8a.27.27,0,0,1,.27.27V6.87a.27.27,0,0,1-.27.27h-.71c-.77,0-.92.37-.92.9V9.23h1.69A.27.27,0,0,1,13.13,9.52Z"/></g></g></svg>