<svg xmlns="http://www.w3.org/2000/svg" viewBox="0 0 20.97 20.97"><defs><style>.cls-1{fill:none;stroke:#757575;stroke-miterlimit:10;}.cls-2{fill:#757575;}</style></defs><title>g+_social</title><g id="Слой_2" data-name="Слой 2"><g id="Layer_1" data-name="Layer 1"><path class="cls-1" d="M20.47,10.49a10,10,0,1,1-10-10A10,10,0,0,1,20.47,10.49Z"/><path class="cls-2" d="M16.73,10.12v.81a.23.23,0,0,1-.23.23h-1v1a.25.25,0,0,1-.24.24h-.81a.24.24,0,0,1-.23-.24v-1h-1a.23.23,0,0,1-.23-.23v-.81a.23.23,0,0,1,.23-.23h1v-1a.23.23,0,0,1,.23-.24h.81a.24.24,0,0,1,.24.24v1h1A.23.23,0,0,1,16.73,10.12Z"/><path class="cls-2" d="M12.23,9.79s0,.89,0,.92A4,4,0,1,1,11,7.58.27.27,0,0,1,11,8l-.72.67a.27.27,0,0,1-.37,0A2.48,2.48,0,1,0,8.22,13a2.49,2.49,0,0,0,2.36-1.65h-2A.27.27,0,0,1,8.36,11v-1a.27.27,0,0,1,.26-.27Z"/></g></g></svg>