<svg xmlns="http://www.w3.org/2000/svg" viewBox="0 0 14 9.2"><defs><style>.cls-1{fill:#757575;}</style></defs><title>mail</title><g id="Слой_2" data-name="Слой 2"><g id="Layer_1" data-name="Layer 1"><path class="cls-1" d="M12.48,0h-11A1.52,1.52,0,0,0,0,1.52V7.68A1.52,1.52,0,0,0,1.52,9.2h11A1.52,1.52,0,0,0,14,7.68V1.52A1.52,1.52,0,0,0,12.48,0ZM1.52.8h11a.72.72,0,0,1,.72.72v.76L7.85,6A1.67,1.67,0,0,1,7,6.32a1.37,1.37,0,0,1-.8-.26L.8,2.32v-.8A.72.72,0,0,1,1.52.8Zm11,7.6h-11A.72.72,0,0,1,.8,7.68V3.29L5.72,6.68A2.14,2.14,0,0,0,7,7.11a2.44,2.44,0,0,0,1.3-.46L13.2,3.25V7.68A.72.72,0,0,1,12.48,8.4Z"/></g></g></svg>