<svg xmlns="http://www.w3.org/2000/svg" viewBox="0 0 51.41 35.09"><defs><style>.cls-1{fill:#f5f5f5;stroke:#000;stroke-miterlimit:10;stroke-width:0.09px;}.cls-2{fill:#e20d17;}.cls-3{fill:#ea610a;}.cls-4{fill:#f59e00;}</style></defs><title>mc</title><g id="Слой_2" data-name="Слой 2"><g id="Layer_1" data-name="Layer 1"><rect class="cls-1" x="0.05" y="0.05" width="51.31" height="35" rx="1.05" ry="1.05"/><path class="cls-2" d="M22.12,17.55a9.38,9.38,0,0,1,3.57-7.37,9.4,9.4,0,1,0,0,14.74A9.38,9.38,0,0,1,22.12,17.55Z"/><path class="cls-3" d="M22.12,17.55a9.38,9.38,0,0,0,3.57,7.37,9.39,9.39,0,0,0,0-14.74A9.38,9.38,0,0,0,22.12,17.55Z"/><path class="cls-4" d="M40.17,22.69v-.32H40v-.09h.36v.09h-.13v.32Zm.69,0v-.28l-.09.24h-.1l-.09-.24v.28h-.1v-.41h.14l.1.26.1-.26H41v.41Z"/><path class="cls-4" d="M31.52,8.15a9.36,9.36,0,0,0-5.83,2,9.39,9.39,0,0,1,0,14.74A9.4,9.4,0,1,0,31.52,8.15Z"/></g></g></svg>