<svg xmlns="http://www.w3.org/2000/svg" viewBox="0 0 82.27 20.97"><defs><style>.cls-1{fill:none;stroke:#757575;stroke-miterlimit:10;}.cls-2{fill:#757575;}</style></defs><title>social</title><g id="Слой_2" data-name="Слой 2"><g id="Layer_1" data-name="Layer 1"><circle class="cls-1" cx="41.13" cy="10.49" r="9.98"/><path class="cls-2" d="M45.91,7.58a3.85,3.85,0,0,1-.82.9.38.38,0,0,0-.13.28v0a5.71,5.71,0,0,1-.38,2,5.9,5.9,0,0,1-1.09,1.83A5.28,5.28,0,0,1,41.71,14a5.78,5.78,0,0,1-2.44.52,5.68,5.68,0,0,1-2.85-.77.17.17,0,0,1-.08-.18.16.16,0,0,1,.16-.12h.24a3.81,3.81,0,0,0,2.13-.65,2.09,2.09,0,0,1-1.64-1.41.11.11,0,0,1,.13-.14,2.5,2.5,0,0,0,.34,0h0a2.06,2.06,0,0,1-1.21-1.91.11.11,0,0,1,.16-.1,1.87,1.87,0,0,0,.47.18,2.08,2.08,0,0,1-.62-1.48,2.05,2.05,0,0,1,.29-1,.11.11,0,0,1,.18,0,5.42,5.42,0,0,0,3.73,2h0a.08.08,0,0,0,.06,0,.05.05,0,0,0,0-.06,2.45,2.45,0,0,1,0-.76A2,2,0,0,1,42.23,6.6a2.07,2.07,0,0,1,2,.42.3.3,0,0,0,.18.06h.06a3.76,3.76,0,0,0,1-.42.11.11,0,0,1,.16.13,2,2,0,0,1-.54.86,3.41,3.41,0,0,0,.66-.22A.11.11,0,0,1,45.91,7.58Z"/><path class="cls-1" d="M81.77,10.49a10,10,0,1,1-10-10A10,10,0,0,1,81.77,10.49Z"/><path class="cls-2" d="M78,10.12v.81a.23.23,0,0,1-.23.23h-1v1a.25.25,0,0,1-.24.24h-.81a.24.24,0,0,1-.23-.24v-1h-1a.23.23,0,0,1-.23-.23v-.81a.23.23,0,0,1,.23-.23h1v-1a.23.23,0,0,1,.23-.24h.81a.24.24,0,0,1,.24.24v1h1A.23.23,0,0,1,78,10.12Z"/><path class="cls-2" d="M73.53,9.79s0,.89,0,.92a4,4,0,1,1-1.24-3.12.27.27,0,0,1,0,.39l-.72.67a.27.27,0,0,1-.37,0A2.48,2.48,0,1,0,69.52,13a2.49,2.49,0,0,0,2.36-1.65h-2a.27.27,0,0,1-.26-.26v-1a.27.27,0,0,1,.26-.27Z"/><path class="cls-1" d="M20.47,10.49a10,10,0,1,1-10-10A10,10,0,0,1,20.47,10.49Z"/><path class="cls-2" d="M13.13,9.52,13,10.94a.27.27,0,0,1-.26.24H11.17v4.39H9.25V11.18H8.12a.27.27,0,0,1-.27-.27V9.49a.27.27,0,0,1,.27-.27H9.25V7.86a2.23,2.23,0,0,1,2.38-2.45H12.8a.27.27,0,0,1,.27.27V6.87a.27.27,0,0,1-.27.27h-.71c-.77,0-.92.37-.92.9V9.23h1.69A.27.27,0,0,1,13.13,9.52Z"/></g></g></svg>