<svg xmlns="http://www.w3.org/2000/svg" viewBox="0 0 14.33 14"><defs><style>.cls-1{fill:#757575;}</style></defs><title>tel</title><g id="Слой_2" data-name="Слой 2"><g id="Layer_1" data-name="Layer 1"><path class="cls-1" d="M5,7.88a1.87,1.87,0,0,1-.6-1.09A1.37,1.37,0,0,1,5,5.6a1.52,1.52,0,0,0,.5-.67,1.37,1.37,0,0,0-.17-1.08c-.56-.7-1.08-1.48-1.58-2.07a1.26,1.26,0,0,0-1.22-.34A2.17,2.17,0,0,0,1.63,2,4.42,4.42,0,0,0,.05,5.91a7.82,7.82,0,0,0,2.5,3.92l1.61,1.61a7.82,7.82,0,0,0,3.92,2.5A4.42,4.42,0,0,0,12,12.37a2.17,2.17,0,0,0,.57-.85,1.26,1.26,0,0,0-.34-1.22c-.59-.51-1.38-1-2.07-1.58a1.37,1.37,0,0,0-1.08-.17A1.52,1.52,0,0,0,8.4,9a1.37,1.37,0,0,1-1.2.59A1.87,1.87,0,0,1,6.12,9M3,2.46,4.43,4.33c.11.21.1.27.09.29a1,1,0,0,1-.22.24,2.43,2.43,0,0,0-.91,2,2.76,2.76,0,0,0,.88,1.68L5.43,9.72a2.76,2.76,0,0,0,1.68.88,2.43,2.43,0,0,0,2-.91,1,1,0,0,1,.24-.22s.08,0,.29.09L11.54,11c.13.14.11.14.09.23a1.52,1.52,0,0,1-.33.45c-.75.75-2,1.59-3,1.31a7.12,7.12,0,0,1-3.4-2.23L3.24,9.15A7.12,7.12,0,0,1,1,5.74c-.28-1.06.56-2.3,1.31-3a1.52,1.52,0,0,1,.45-.33c.08,0,.14,0,.23.09Z"/><path class="cls-1" d="M6.16.51A.51.51,0,0,0,6.67,1a6.67,6.67,0,0,1,6.67,6.67.49.49,0,1,0,1,0A7.66,7.66,0,0,0,6.67,0a.53.53,0,0,0-.51.51Zm0,2a.51.51,0,0,0,.51.46A4.71,4.71,0,0,1,11.4,7.65a.49.49,0,1,0,1,0A5.71,5.71,0,0,0,6.67,2a.53.53,0,0,0-.51.51Z"/></g></g></svg>