<svg xmlns="http://www.w3.org/2000/svg" viewBox="0 0 20.97 20.97"><defs><style>.cls-1{fill:none;stroke:#757575;stroke-miterlimit:10;}.cls-2{fill:#757575;}</style></defs><title>twitter_social</title><g id="Слой_2" data-name="Слой 2"><g id="Layer_1" data-name="Layer 1"><circle class="cls-1" cx="10.48" cy="10.49" r="9.98"/><path class="cls-2" d="M15.27,7.58a3.85,3.85,0,0,1-.82.9.38.38,0,0,0-.13.28v0a5.71,5.71,0,0,1-.38,2,5.9,5.9,0,0,1-1.09,1.83A5.28,5.28,0,0,1,11.06,14a5.78,5.78,0,0,1-2.44.52,5.68,5.68,0,0,1-2.85-.77.17.17,0,0,1-.08-.18.16.16,0,0,1,.16-.12h.24a3.81,3.81,0,0,0,2.13-.65,2.09,2.09,0,0,1-1.64-1.41.11.11,0,0,1,.13-.14,2.5,2.5,0,0,0,.34,0h0A2.06,2.06,0,0,1,5.89,9.33a.11.11,0,0,1,.16-.1,1.87,1.87,0,0,0,.47.18A2.08,2.08,0,0,1,5.9,7.94a2.05,2.05,0,0,1,.29-1,.11.11,0,0,1,.18,0,5.42,5.42,0,0,0,3.73,2h0a.08.08,0,0,0,.06,0,.05.05,0,0,0,0-.06,2.45,2.45,0,0,1,0-.76,2,2,0,0,1,1.36-1.45,2.07,2.07,0,0,1,2,.42.3.3,0,0,0,.18.06h.06a3.76,3.76,0,0,0,1-.42.11.11,0,0,1,.16.13,2,2,0,0,1-.54.86,3.41,3.41,0,0,0,.66-.22A.11.11,0,0,1,15.27,7.58Z"/></g></g></svg>