<svg xmlns="http://www.w3.org/2000/svg" viewBox="0 0 51.41 35.09"><defs><style>.cls-1{fill:#f5f5f5;stroke:#000;stroke-miterlimit:10;stroke-width:0.09px;}.cls-2{fill:#0066b2;}.cls-3{fill:#f9a533;}</style></defs><title>visa</title><g id="Слой_2" data-name="Слой 2"><g id="Layer_1" data-name="Layer 1"><rect class="cls-1" x="0.05" y="0.05" width="51.31" height="35" rx="1.05" ry="1.05"/><polygon class="cls-2" points="23.36 23.06 20.5 23.06 22.29 12.04 25.16 12.04 23.36 23.06"/><path class="cls-2" d="M18.08,12l-2.74,7.58L15,18h0l-1-5a1.23,1.23,0,0,0-1.36-1H8.17l-.05.19a10.72,10.72,0,0,1,3,1.26l2.49,9.58h3l4.57-11Z"/><path class="cls-2" d="M40.65,23.06h2.63L41,12H38.68a1.32,1.32,0,0,0-1.32.82l-4.28,10.2h3l.6-1.64h3.65Zm-3.16-3.9L39,15l.85,4.12Z"/><path class="cls-2" d="M33.3,14.69l.41-2.37a8.28,8.28,0,0,0-2.58-.48c-1.42,0-4.81.62-4.81,3.65,0,2.85,4,2.88,4,4.38s-3.56,1.23-4.73.28l-.43,2.47a8,8,0,0,0,3.24.62c2,0,4.91-1,4.91-3.77s-4-3.13-4-4.38S32.07,14,33.3,14.69Z"/><path class="cls-3" d="M15,18l-1-5a1.23,1.23,0,0,0-1.36-1H8.17l-.05.19a11.12,11.12,0,0,1,4.26,2.14A8.6,8.6,0,0,1,15,18Z"/></g></g></svg>